<svg xmlns="http://www.w3.org/2000/svg" xmlns:xlink="http://www.w3.org/1999/xlink" width="90" height="40" viewBox="0 0 90 40">
  <defs>
    <clipPath id="clip-hercirclelogo_90x40">
      <rect width="90" height="40"/>
    </clipPath>
  </defs>
  <g id="hercirclelogo_90x40" clip-path="url(#clip-hercirclelogo_90x40)">
    <g id="Group_143" data-name="Group 143" transform="translate(-618.641 -393.938)">
      <path id="Path_201" data-name="Path 201" d="M1049.643,413.928h-16.314l16.252-1.422-.021-.243-16.251,1.422,16.066-2.833-.042-.241-16.066,2.833,15.758-4.222-.063-.236-15.758,4.222,15.33-5.58-.084-.23-15.33,5.58,14.785-6.894-.1-.222-14.785,6.894,14.128-8.157-.122-.212-14.128,8.157,13.364-9.357-.14-.2-13.363,9.357,12.5-10.486-.157-.187-12.5,10.486,11.536-11.536-.173-.173-11.535,11.536,10.486-12.5-.187-.157-10.486,12.5,9.357-13.363-.2-.14-9.357,13.363,8.157-14.128-.212-.122-8.157,14.128,6.895-14.785-.222-.1-6.895,14.786,5.58-15.33-.23-.084-5.58,15.33,4.222-15.758-.236-.063-4.223,15.758,2.833-16.066-.241-.042-2.833,16.066,1.422-16.251-.243-.021-1.422,16.252V394.938h-.244v16.314L1028.986,395l-.243.021,1.422,16.252-2.833-16.066-.241.042,2.833,16.066-4.222-15.758-.236.063,4.223,15.759-5.58-15.331-.23.084,5.58,15.33-6.894-14.785-.222.1,6.894,14.785-8.157-14.128-.212.122,8.157,14.128-9.357-13.363-.2.14,9.357,13.363-10.486-12.5-.187.157,10.486,12.5L1017.1,400.449l-.173.173,11.536,11.536-12.5-10.486-.157.187,12.5,10.486-13.363-9.357-.14.2,13.363,9.357-14.128-8.157-.122.212,14.128,8.157-14.785-6.894-.1.222,14.785,6.894-15.33-5.58-.084.23,15.33,5.58-15.758-4.222-.063.236,15.758,4.222-16.066-2.833-.042.241,16.066,2.833-16.252-1.422-.021.243,16.252,1.422h-16.314v.244h16.314l-16.252,1.422.021.243,16.252-1.422-16.066,2.833.042.241,16.066-2.833-15.758,4.222.063.236,15.758-4.222-15.33,5.58.084.23,15.33-5.579-14.785,6.894.1.221,14.785-6.894-14.128,8.157.122.212,14.128-8.157-13.363,9.357.14.2,13.364-9.357-12.5,10.486.157.187,12.5-10.486-11.536,11.536.173.173,11.535-11.535-10.486,12.5.187.157,10.486-12.5-9.357,13.363.2.14,9.357-13.363-8.157,14.128.212.122,8.157-14.128-6.894,14.785.222.1,6.894-14.785-5.58,15.33.23.084,5.58-15.331-4.223,15.759.236.063,4.222-15.758-2.833,16.066.241.042,2.833-16.066-1.422,16.252.243.021,1.422-16.252v16.314h.244V416.849l1.422,16.252.243-.021-1.422-16.251,2.833,16.066.241-.042-2.833-16.066,4.223,15.758.236-.063-4.222-15.758,5.58,15.33.23-.084-5.58-15.33,6.895,14.786.222-.1-6.895-14.785,8.157,14.128.212-.122-8.157-14.128,9.357,13.363.2-.14-9.357-13.363,10.486,12.5.187-.157-10.486-12.5,11.535,11.535.173-.173L1032.6,415.943l12.5,10.486.157-.187-12.5-10.486,13.364,9.357.14-.2-13.363-9.357,14.128,8.157.122-.212-14.128-8.157,14.785,6.894.1-.221-14.785-6.895,15.33,5.58.084-.23-15.33-5.58,15.758,4.222.063-.236-15.758-4.222,16.066,2.833.042-.241-16.066-2.833,16.252,1.422.021-.243-16.252-1.422h16.314Z" transform="translate(-341.186)" fill="#ff0a6c"/>
      <path id="Path_202" data-name="Path 202" d="M674.31,454.379c.006-.09.011-.18.011-.272a3.87,3.87,0,0,0-.066-.709l0-.026c0-.019-.007-.038-.011-.057a3.584,3.584,0,0,0-2.24-2.744,3.8,3.8,0,0,0-.444-.161,5.3,5.3,0,0,0-1.545-.231c-2.668,0-4.7,2.269-5.338,5.322v-5.322a19.027,19.027,0,0,1-6.13,1.1v12.1a7.884,7.884,0,0,1-6.44,3.671c-3.32,0-6.333-2.449-6.54-7.482a23.7,23.7,0,0,0,3.509.318c6.1,0,7.232-3.272,7.232-5.2,0-3.616-3.995-4.511-7.094-4.511-6.336,0-10.469,3.719-10.469,9.3a9.717,9.717,0,0,0,1.222,4.935c-.582,1.48-1.3,2.022-2.117,2.022-.723,0-1.343-.448-1.343-2.17v-8.816c0-2.824-1.481-5.269-4.821-5.269-2.524,0-5.207,1.505-7.094,5.41v-12.3a19.031,19.031,0,0,1-6.13,1.1v24.382a61.314,61.314,0,0,1,6.13-.276V456.213c.838-1.9,2.411-3.038,3.616-3.038a2.163,2.163,0,0,1,2.17,2.445V463.3c0,1.963.1,5.475,4.236,5.475,2.613,0,4.508-1.434,5.529-4.079,1.632,2.556,4.662,4.078,8.934,4.078a11.11,11.11,0,0,0,9.471-4.907v4.907a61.314,61.314,0,0,1,6.13-.276V458.307c0-2.74,1.037-5.852,3.211-7.059a3.853,3.853,0,1,0,5.637,5.209A3.272,3.272,0,0,0,674.31,454.379Zm-24.55-3.89c1.068,0,1.653.827,1.653,2.411,0,3.306-2.135,6.405-5.372,6.405-.16,0-.32-.012-.487-.028C645.48,455.317,647.221,450.489,649.76,450.489Z" transform="translate(0 -41.983)" fill="#4218b8"/>
    </g>
  </g>
</svg>
